<mxfile host="app.diagrams.net" modified="2023-10-15T14:04:45.720Z" agent="Mozilla/5.0 (Windows NT 10.0; Win64; x64) AppleWebKit/537.36 (KHTML, like Gecko) Chrome/116.0.0.0 Safari/537.36 OPR/102.0.0.0" etag="04eUUejlifKw6WP2nRsB" version="22.0.4" type="device">
  <diagram name="Pagina-1" id="wN6YJSM4o66fR8LFv3Vh">
    <mxGraphModel dx="2169" dy="2571" grid="1" gridSize="10" guides="1" tooltips="1" connect="1" arrows="1" fold="1" page="1" pageScale="1" pageWidth="827" pageHeight="1169" math="0" shadow="0">
      <root>
        <mxCell id="0" />
        <mxCell id="1" parent="0" />
        <mxCell id="5UGKIeRZJDmRClwh3Alo-3" value="&lt;font style=&quot;font-size: 18px;&quot;&gt;Kawaii Comix&lt;/font&gt;" style="swimlane;whiteSpace=wrap;html=1;startSize=80;fillColor=#FF6F88;align=left;strokeColor=#000000;" parent="1" vertex="1">
          <mxGeometry x="-680" y="-840" width="1020" height="644" as="geometry" />
        </mxCell>
        <mxCell id="5UGKIeRZJDmRClwh3Alo-8" value="" style="whiteSpace=wrap;html=1;fillColor=#CCFFFF;align=left;" parent="5UGKIeRZJDmRClwh3Alo-3" vertex="1">
          <mxGeometry y="80" width="1020" height="520" as="geometry" />
        </mxCell>
        <mxCell id="5UGKIeRZJDmRClwh3Alo-9" value="Home" style="rounded=1;whiteSpace=wrap;html=1;fillColor=#FFCCCC;" parent="5UGKIeRZJDmRClwh3Alo-3" vertex="1">
          <mxGeometry x="560" y="20" width="80" height="40" as="geometry" />
        </mxCell>
        <mxCell id="5UGKIeRZJDmRClwh3Alo-10" value="Catalogo" style="rounded=1;whiteSpace=wrap;html=1;fillColor=#FFCCCC;" parent="5UGKIeRZJDmRClwh3Alo-3" vertex="1">
          <mxGeometry x="650" y="20" width="80" height="40" as="geometry" />
        </mxCell>
        <mxCell id="5UGKIeRZJDmRClwh3Alo-11" value="Ricerca" style="rounded=1;whiteSpace=wrap;html=1;fillColor=#FFCCCC;" parent="5UGKIeRZJDmRClwh3Alo-3" vertex="1">
          <mxGeometry x="740" y="20" width="80" height="40" as="geometry" />
        </mxCell>
        <mxCell id="5UGKIeRZJDmRClwh3Alo-12" value="Area Utente" style="rounded=1;whiteSpace=wrap;html=1;fillColor=#FFCCCC;" parent="5UGKIeRZJDmRClwh3Alo-3" vertex="1">
          <mxGeometry x="830" y="20" width="80" height="40" as="geometry" />
        </mxCell>
        <mxCell id="5UGKIeRZJDmRClwh3Alo-13" value="Carrello" style="rounded=1;whiteSpace=wrap;html=1;fillColor=#FFCCCC;" parent="5UGKIeRZJDmRClwh3Alo-3" vertex="1">
          <mxGeometry x="920" y="20" width="80" height="40" as="geometry" />
        </mxCell>
        <mxCell id="5UGKIeRZJDmRClwh3Alo-15" value="" style="rounded=0;whiteSpace=wrap;html=1;fillColor=#66B2FF;align=left;" parent="5UGKIeRZJDmRClwh3Alo-3" vertex="1">
          <mxGeometry x="207.5" y="120" width="605" height="450" as="geometry" />
        </mxCell>
        <mxCell id="5UGKIeRZJDmRClwh3Alo-35" value="Aggiungi" style="rounded=1;whiteSpace=wrap;html=1;fillColor=#FFCCCC;" parent="5UGKIeRZJDmRClwh3Alo-3" vertex="1">
          <mxGeometry x="470" y="520" width="80" height="40" as="geometry" />
        </mxCell>
        <mxCell id="5UGKIeRZJDmRClwh3Alo-36" value="&lt;font size=&quot;3&quot;&gt;&lt;b&gt;ISBN&lt;br&gt;&lt;br&gt;Nome&lt;br&gt;&lt;br&gt;Descrizione&lt;br&gt;&lt;br&gt;Immagine&lt;br&gt;&lt;br&gt;Prezzo&lt;br&gt;&lt;br&gt;QuantitÃ &lt;br&gt;&lt;br&gt;Genere&lt;br&gt;&lt;br&gt;Categoria&lt;/b&gt;&lt;br&gt;&lt;/font&gt;" style="rounded=0;whiteSpace=wrap;html=1;fillColor=#66B2FF;strokeColor=#66B2FF;" parent="5UGKIeRZJDmRClwh3Alo-3" vertex="1">
          <mxGeometry x="267" y="170" width="120" height="340" as="geometry" />
        </mxCell>
        <mxCell id="5UGKIeRZJDmRClwh3Alo-37" value="" style="rounded=0;whiteSpace=wrap;html=1;" parent="5UGKIeRZJDmRClwh3Alo-3" vertex="1">
          <mxGeometry x="420" y="200" width="340" height="19" as="geometry" />
        </mxCell>
        <mxCell id="5UGKIeRZJDmRClwh3Alo-49" value="" style="rounded=0;whiteSpace=wrap;html=1;" parent="5UGKIeRZJDmRClwh3Alo-3" vertex="1">
          <mxGeometry x="420" y="236" width="340" height="20" as="geometry" />
        </mxCell>
        <mxCell id="5UGKIeRZJDmRClwh3Alo-50" value="" style="rounded=0;whiteSpace=wrap;html=1;" parent="5UGKIeRZJDmRClwh3Alo-3" vertex="1">
          <mxGeometry x="420" y="270" width="340" height="20" as="geometry" />
        </mxCell>
        <mxCell id="5UGKIeRZJDmRClwh3Alo-51" value="" style="rounded=0;whiteSpace=wrap;html=1;" parent="5UGKIeRZJDmRClwh3Alo-3" vertex="1">
          <mxGeometry x="420" y="310" width="340" height="20" as="geometry" />
        </mxCell>
        <mxCell id="5UGKIeRZJDmRClwh3Alo-52" value="&lt;h1&gt;AGGIUNGI UN PRODOTTO&lt;/h1&gt;" style="rounded=0;whiteSpace=wrap;html=1;fillColor=#66B2FF;strokeColor=#66B2FF;" parent="5UGKIeRZJDmRClwh3Alo-3" vertex="1">
          <mxGeometry x="350" y="130" width="320" height="60" as="geometry" />
        </mxCell>
        <mxCell id="y_b3C8W4ZtmqAeaythEe-1" style="edgeStyle=orthogonalEdgeStyle;rounded=0;orthogonalLoop=1;jettySize=auto;html=1;exitX=0.5;exitY=1;exitDx=0;exitDy=0;" parent="5UGKIeRZJDmRClwh3Alo-3" source="5UGKIeRZJDmRClwh3Alo-37" target="5UGKIeRZJDmRClwh3Alo-37" edge="1">
          <mxGeometry relative="1" as="geometry" />
        </mxCell>
        <mxCell id="y_b3C8W4ZtmqAeaythEe-18" value="Scegli file" style="rounded=0;whiteSpace=wrap;html=1;" parent="5UGKIeRZJDmRClwh3Alo-3" vertex="1">
          <mxGeometry x="420" y="310" width="93" height="20" as="geometry" />
        </mxCell>
        <mxCell id="y_b3C8W4ZtmqAeaythEe-21" value="" style="rounded=0;whiteSpace=wrap;html=1;" parent="5UGKIeRZJDmRClwh3Alo-3" vertex="1">
          <mxGeometry x="420" y="350" width="340" height="20" as="geometry" />
        </mxCell>
        <mxCell id="y_b3C8W4ZtmqAeaythEe-22" value="" style="rounded=0;whiteSpace=wrap;html=1;" parent="5UGKIeRZJDmRClwh3Alo-3" vertex="1">
          <mxGeometry x="420" y="390" width="340" height="20" as="geometry" />
        </mxCell>
        <mxCell id="y_b3C8W4ZtmqAeaythEe-23" value="Menu" style="rounded=0;whiteSpace=wrap;html=1;" parent="5UGKIeRZJDmRClwh3Alo-3" vertex="1">
          <mxGeometry x="590" y="430" width="170" height="20" as="geometry" />
        </mxCell>
        <mxCell id="y_b3C8W4ZtmqAeaythEe-24" value="Menu" style="rounded=0;whiteSpace=wrap;html=1;" parent="5UGKIeRZJDmRClwh3Alo-3" vertex="1">
          <mxGeometry x="590" y="460" width="170" height="20" as="geometry" />
        </mxCell>
        <mxCell id="5UGKIeRZJDmRClwh3Alo-4" value="" style="endArrow=none;html=1;rounded=0;" parent="1" edge="1">
          <mxGeometry width="50" height="50" relative="1" as="geometry">
            <mxPoint x="-680" y="-240" as="sourcePoint" />
            <mxPoint x="320" y="-240" as="targetPoint" />
          </mxGeometry>
        </mxCell>
        <mxCell id="5UGKIeRZJDmRClwh3Alo-5" value="&lt;font size=&quot;3&quot;&gt;Footer&lt;/font&gt;" style="whiteSpace=wrap;html=1;fillColor=#B3B3B3;" parent="1" vertex="1">
          <mxGeometry x="-680" y="-240" width="1020" height="60" as="geometry" />
        </mxCell>
      </root>
    </mxGraphModel>
  </diagram>
</mxfile>
